<svg id="visual" viewBox="0 0 1920 300" width="1920" height="300" xmlns="http://www.w3.org/2000/svg" xmlns:xlink="http://www.w3.org/1999/xlink" version="1.1"><path d="M0 61L35.5 75C71 89 142 117 213.2 128C284.3 139 355.7 133 426.8 121.7C498 110.3 569 93.7 640 94.7C711 95.7 782 114.3 853.2 117C924.3 119.7 995.7 106.3 1066.8 112.2C1138 118 1209 143 1280 154.3C1351 165.7 1422 163.3 1493.2 161.5C1564.3 159.7 1635.7 158.3 1706.8 157.5C1778 156.7 1849 156.3 1884.5 156.2L1920 156L1920 301L1884.5 301C1849 301 1778 301 1706.8 301C1635.7 301 1564.3 301 1493.2 301C1422 301 1351 301 1280 301C1209 301 1138 301 1066.8 301C995.7 301 924.3 301 853.2 301C782 301 711 301 640 301C569 301 498 301 426.8 301C355.7 301 284.3 301 213.2 301C142 301 71 301 35.5 301L0 301Z" fill="#87b9ff"></path><path d="M0 189L35.5 178.2C71 167.3 142 145.7 213.2 134.5C284.3 123.3 355.7 122.7 426.8 130.8C498 139 569 156 640 153.8C711 151.7 782 130.3 853.2 127.7C924.3 125 995.7 141 1066.8 151.7C1138 162.3 1209 167.7 1280 172.5C1351 177.3 1422 181.7 1493.2 182C1564.3 182.3 1635.7 178.7 1706.8 171.7C1778 164.7 1849 154.3 1884.5 149.2L1920 144L1920 301L1884.5 301C1849 301 1778 301 1706.8 301C1635.7 301 1564.3 301 1493.2 301C1422 301 1351 301 1280 301C1209 301 1138 301 1066.8 301C995.7 301 924.3 301 853.2 301C782 301 711 301 640 301C569 301 498 301 426.8 301C355.7 301 284.3 301 213.2 301C142 301 71 301 35.5 301L0 301Z" fill="#73d7fe"></path><path d="M0 231L35.5 225.8C71 220.7 142 210.3 213.2 210.5C284.3 210.7 355.7 221.3 426.8 214.7C498 208 569 184 640 183.2C711 182.3 782 204.7 853.2 216.8C924.3 229 995.7 231 1066.8 231.7C1138 232.3 1209 231.7 1280 218.3C1351 205 1422 179 1493.2 171.8C1564.3 164.7 1635.7 176.3 1706.8 176C1778 175.7 1849 163.3 1884.5 157.2L1920 151L1920 301L1884.5 301C1849 301 1778 301 1706.8 301C1635.7 301 1564.3 301 1493.2 301C1422 301 1351 301 1280 301C1209 301 1138 301 1066.8 301C995.7 301 924.3 301 853.2 301C782 301 711 301 640 301C569 301 498 301 426.8 301C355.7 301 284.3 301 213.2 301C142 301 71 301 35.5 301L0 301Z" fill="#93eef1"></path><path d="M0 234L35.5 228.8C71 223.7 142 213.3 213.2 216.3C284.3 219.3 355.7 235.7 426.8 241.5C498 247.3 569 242.7 640 242C711 241.3 782 244.7 853.2 250.2C924.3 255.7 995.7 263.3 1066.8 258.8C1138 254.3 1209 237.7 1280 237.8C1351 238 1422 255 1493.2 259.8C1564.3 264.7 1635.7 257.3 1706.8 251.2C1778 245 1849 240 1884.5 237.5L1920 235L1920 301L1884.5 301C1849 301 1778 301 1706.8 301C1635.7 301 1564.3 301 1493.2 301C1422 301 1351 301 1280 301C1209 301 1138 301 1066.8 301C995.7 301 924.3 301 853.2 301C782 301 711 301 640 301C569 301 498 301 426.8 301C355.7 301 284.3 301 213.2 301C142 301 71 301 35.5 301L0 301Z" fill="#c9ffe8"></path></svg>