<svg id="visual" viewBox="0 0 1920 300" width="1920" height="300" xmlns="http://www.w3.org/2000/svg" xmlns:xlink="http://www.w3.org/1999/xlink" version="1.1"><path d="M0 82L29.2 78.3C58.3 74.7 116.7 67.3 174.8 63.8C233 60.3 291 60.7 349.2 68C407.3 75.3 465.7 89.7 523.8 89C582 88.3 640 72.7 698.2 81C756.3 89.3 814.7 121.7 872.8 137.8C931 154 989 154 1047.2 148.5C1105.3 143 1163.7 132 1221.8 117.7C1280 103.3 1338 85.7 1396.2 75.7C1454.3 65.7 1512.7 63.3 1570.8 72C1629 80.7 1687 100.3 1745.2 111.3C1803.3 122.3 1861.7 124.7 1890.8 125.8L1920 127L1920 301L1890.8 301C1861.7 301 1803.3 301 1745.2 301C1687 301 1629 301 1570.8 301C1512.7 301 1454.3 301 1396.2 301C1338 301 1280 301 1221.8 301C1163.7 301 1105.3 301 1047.2 301C989 301 931 301 872.8 301C814.7 301 756.3 301 698.2 301C640 301 582 301 523.8 301C465.7 301 407.3 301 349.2 301C291 301 233 301 174.8 301C116.7 301 58.3 301 29.2 301L0 301Z" fill="#c9ffe8"></path><path d="M0 169L29.2 159.8C58.3 150.7 116.7 132.3 174.8 122.8C233 113.3 291 112.7 349.2 119C407.3 125.3 465.7 138.7 523.8 139C582 139.3 640 126.7 698.2 131.5C756.3 136.3 814.7 158.7 872.8 162.3C931 166 989 151 1047.2 140.7C1105.3 130.3 1163.7 124.7 1221.8 122.7C1280 120.7 1338 122.3 1396.2 123.5C1454.3 124.7 1512.7 125.3 1570.8 135.8C1629 146.3 1687 166.7 1745.2 169.5C1803.3 172.3 1861.7 157.7 1890.8 150.3L1920 143L1920 301L1890.8 301C1861.7 301 1803.3 301 1745.2 301C1687 301 1629 301 1570.8 301C1512.7 301 1454.3 301 1396.2 301C1338 301 1280 301 1221.8 301C1163.7 301 1105.3 301 1047.2 301C989 301 931 301 872.8 301C814.7 301 756.3 301 698.2 301C640 301 582 301 523.8 301C465.7 301 407.3 301 349.2 301C291 301 233 301 174.8 301C116.7 301 58.3 301 29.2 301L0 301Z" fill="#93eef1"></path><path d="M0 199L29.2 204.2C58.3 209.3 116.7 219.7 174.8 215.7C233 211.7 291 193.3 349.2 187.8C407.3 182.3 465.7 189.7 523.8 192.3C582 195 640 193 698.2 187.3C756.3 181.7 814.7 172.3 872.8 171.5C931 170.7 989 178.3 1047.2 180.8C1105.3 183.3 1163.7 180.7 1221.8 183.3C1280 186 1338 194 1396.2 192.3C1454.3 190.7 1512.7 179.3 1570.8 177.7C1629 176 1687 184 1745.2 184.3C1803.3 184.7 1861.7 177.3 1890.8 173.7L1920 170L1920 301L1890.8 301C1861.7 301 1803.3 301 1745.2 301C1687 301 1629 301 1570.8 301C1512.7 301 1454.3 301 1396.2 301C1338 301 1280 301 1221.8 301C1163.7 301 1105.3 301 1047.2 301C989 301 931 301 872.8 301C814.7 301 756.3 301 698.2 301C640 301 582 301 523.8 301C465.7 301 407.3 301 349.2 301C291 301 233 301 174.8 301C116.7 301 58.3 301 29.2 301L0 301Z" fill="#73d7fe"></path><path d="M0 247L29.2 243.5C58.3 240 116.7 233 174.8 227.3C233 221.7 291 217.3 349.2 223.3C407.3 229.3 465.7 245.7 523.8 249.5C582 253.3 640 244.7 698.2 238C756.3 231.3 814.7 226.7 872.8 227.5C931 228.3 989 234.7 1047.2 238.3C1105.3 242 1163.7 243 1221.8 242.5C1280 242 1338 240 1396.2 234.8C1454.3 229.7 1512.7 221.3 1570.8 223.8C1629 226.3 1687 239.7 1745.2 248C1803.3 256.3 1861.7 259.7 1890.8 261.3L1920 263L1920 301L1890.8 301C1861.7 301 1803.3 301 1745.2 301C1687 301 1629 301 1570.8 301C1512.7 301 1454.3 301 1396.2 301C1338 301 1280 301 1221.8 301C1163.7 301 1105.3 301 1047.2 301C989 301 931 301 872.8 301C814.7 301 756.3 301 698.2 301C640 301 582 301 523.8 301C465.7 301 407.3 301 349.2 301C291 301 233 301 174.8 301C116.7 301 58.3 301 29.2 301L0 301Z" fill="#87b9ff"></path></svg>