<svg id="visual" viewBox="0 0 1920 300" width="1920" height="300" xmlns="http://www.w3.org/2000/svg" xmlns:xlink="http://www.w3.org/1999/xlink" version="1.1"><path d="M0 56L22.8 61.7C45.7 67.3 91.3 78.7 137 84.5C182.7 90.3 228.3 90.7 274 93.7C319.7 96.7 365.3 102.3 411.2 109.8C457 117.3 503 126.7 548.8 120.7C594.7 114.7 640.3 93.3 686 92.2C731.7 91 777.3 110 823 116.2C868.7 122.3 914.3 115.7 960 113C1005.7 110.3 1051.3 111.7 1097 122.3C1142.7 133 1188.3 153 1234 146C1279.7 139 1325.3 105 1371.2 88.3C1417 71.7 1463 72.3 1508.8 88.8C1554.7 105.3 1600.3 137.7 1646 149.3C1691.7 161 1737.3 152 1783 136C1828.7 120 1874.3 97 1897.2 85.5L1920 74L1920 301L1897.2 301C1874.3 301 1828.7 301 1783 301C1737.3 301 1691.7 301 1646 301C1600.3 301 1554.7 301 1508.8 301C1463 301 1417 301 1371.2 301C1325.3 301 1279.7 301 1234 301C1188.3 301 1142.7 301 1097 301C1051.3 301 1005.7 301 960 301C914.3 301 868.7 301 823 301C777.3 301 731.7 301 686 301C640.3 301 594.7 301 548.8 301C503 301 457 301 411.2 301C365.3 301 319.7 301 274 301C228.3 301 182.7 301 137 301C91.3 301 45.7 301 22.8 301L0 301Z" fill="#87b9ff"></path><path d="M0 129L22.8 133.5C45.7 138 91.3 147 137 156.7C182.7 166.3 228.3 176.7 274 185.8C319.7 195 365.3 203 411.2 202.2C457 201.3 503 191.7 548.8 191.2C594.7 190.7 640.3 199.3 686 186C731.7 172.7 777.3 137.3 823 120.3C868.7 103.3 914.3 104.7 960 115C1005.7 125.3 1051.3 144.7 1097 154.2C1142.7 163.7 1188.3 163.3 1234 171.2C1279.7 179 1325.3 195 1371.2 189.5C1417 184 1463 157 1508.8 147.8C1554.7 138.7 1600.3 147.3 1646 153C1691.7 158.7 1737.3 161.3 1783 157.2C1828.7 153 1874.3 142 1897.2 136.5L1920 131L1920 301L1897.2 301C1874.3 301 1828.7 301 1783 301C1737.3 301 1691.7 301 1646 301C1600.3 301 1554.7 301 1508.8 301C1463 301 1417 301 1371.2 301C1325.3 301 1279.7 301 1234 301C1188.3 301 1142.7 301 1097 301C1051.3 301 1005.7 301 960 301C914.3 301 868.7 301 823 301C777.3 301 731.7 301 686 301C640.3 301 594.7 301 548.8 301C503 301 457 301 411.2 301C365.3 301 319.7 301 274 301C228.3 301 182.7 301 137 301C91.3 301 45.7 301 22.8 301L0 301Z" fill="#73d7fe"></path><path d="M0 222L22.8 220.8C45.7 219.7 91.3 217.3 137 206C182.7 194.7 228.3 174.3 274 179C319.7 183.7 365.3 213.3 411.2 226.8C457 240.3 503 237.7 548.8 229.3C594.7 221 640.3 207 686 193.2C731.7 179.3 777.3 165.7 823 158.8C868.7 152 914.3 152 960 162.5C1005.7 173 1051.3 194 1097 198.8C1142.7 203.7 1188.3 192.3 1234 182C1279.7 171.7 1325.3 162.3 1371.2 165C1417 167.7 1463 182.3 1508.8 182.7C1554.7 183 1600.3 169 1646 170.5C1691.7 172 1737.3 189 1783 203.8C1828.7 218.7 1874.3 231.3 1897.2 237.7L1920 244L1920 301L1897.2 301C1874.3 301 1828.7 301 1783 301C1737.3 301 1691.7 301 1646 301C1600.3 301 1554.7 301 1508.8 301C1463 301 1417 301 1371.2 301C1325.3 301 1279.7 301 1234 301C1188.3 301 1142.7 301 1097 301C1051.3 301 1005.7 301 960 301C914.3 301 868.7 301 823 301C777.3 301 731.7 301 686 301C640.3 301 594.7 301 548.8 301C503 301 457 301 411.2 301C365.3 301 319.7 301 274 301C228.3 301 182.7 301 137 301C91.3 301 45.7 301 22.8 301L0 301Z" fill="#93eef1"></path><path d="M0 236L22.8 237.3C45.7 238.7 91.3 241.3 137 245.3C182.7 249.3 228.3 254.7 274 249.8C319.7 245 365.3 230 411.2 225C457 220 503 225 548.8 230.2C594.7 235.3 640.3 240.7 686 247.7C731.7 254.7 777.3 263.3 823 260.5C868.7 257.7 914.3 243.3 960 240C1005.7 236.7 1051.3 244.3 1097 248C1142.7 251.7 1188.3 251.3 1234 255.2C1279.7 259 1325.3 267 1371.2 259.7C1417 252.3 1463 229.7 1508.8 226.8C1554.7 224 1600.3 241 1646 249.8C1691.7 258.7 1737.3 259.3 1783 253.7C1828.7 248 1874.3 236 1897.2 230L1920 224L1920 301L1897.2 301C1874.3 301 1828.7 301 1783 301C1737.3 301 1691.7 301 1646 301C1600.3 301 1554.7 301 1508.8 301C1463 301 1417 301 1371.2 301C1325.3 301 1279.7 301 1234 301C1188.3 301 1142.7 301 1097 301C1051.3 301 1005.7 301 960 301C914.3 301 868.7 301 823 301C777.3 301 731.7 301 686 301C640.3 301 594.7 301 548.8 301C503 301 457 301 411.2 301C365.3 301 319.7 301 274 301C228.3 301 182.7 301 137 301C91.3 301 45.7 301 22.8 301L0 301Z" fill="#c9ffe8"></path></svg>