<svg id="visual" viewBox="0 0 1920 300" width="1920" height="300" xmlns="http://www.w3.org/2000/svg" xmlns:xlink="http://www.w3.org/1999/xlink" version="1.1" style="display: block; vertical-align: bottom;">
    <path d="M0 114L45.7 99.5C91.3 85 182.7 56 274.2 43.7C365.7 31.3 457.3 35.7 548.8 34.2C640.3 32.7 731.7 25.3 823 45.3C914.3 65.3 1005.7 112.7 1097 109.8C1188.3 107 1279.7 54 1371.2 37.8C1462.7 21.7 1554.3 42.3 1645.8 44.8C1737.3 47.3 1828.7 31.7 1874.3 23.8L1920 16L1920 301L1874.3 301C1828.7 301 1737.3 301 1645.8 301C1554.3 301 1462.7 301 1371.2 301C1279.7 301 1188.3 301 1097 301C1005.7 301 914.3 301 823 301C731.7 301 640.3 301 548.8 301C457.3 301 365.7 301 274.2 301C182.7 301 91.3 301 45.7 301L0 301Z" fill="#87b9ff"></path>
    <path d="M0 83L45.7 99.7C91.3 116.3 182.7 149.7 274.2 161.8C365.7 174 457.3 165 548.8 154.7C640.3 144.3 731.7 132.7 823 125.5C914.3 118.3 1005.7 115.7 1097 132C1188.3 148.3 1279.7 183.7 1371.2 192C1462.7 200.3 1554.3 181.7 1645.8 170.7C1737.3 159.7 1828.7 156.3 1874.3 154.7L1920 153L1920 301L1874.3 301C1828.7 301 1737.3 301 1645.8 301C1554.3 301 1462.7 301 1371.2 301C1279.7 301 1188.3 301 1097 301C1005.7 301 914.3 301 823 301C731.7 301 640.3 301 548.8 301C457.3 301 365.7 301 274.2 301C182.7 301 91.3 301 45.7 301L0 301Z" fill="#73d7fe"></path>
    <path d="M0 253L45.7 245.5C91.3 238 182.7 223 274.2 211.2C365.7 199.3 457.3 190.7 548.8 195.7C640.3 200.7 731.7 219.3 823 227.2C914.3 235 1005.7 232 1097 230.3C1188.3 228.7 1279.7 228.3 1371.2 211.5C1462.7 194.7 1554.3 161.3 1645.8 164C1737.3 166.7 1828.7 205.3 1874.3 224.7L1920 244L1920 301L1874.3 301C1828.7 301 1737.3 301 1645.8 301C1554.3 301 1462.7 301 1371.2 301C1279.7 301 1188.3 301 1097 301C1005.7 301 914.3 301 823 301C731.7 301 640.3 301 548.8 301C457.3 301 365.7 301 274.2 301C182.7 301 91.3 301 45.7 301L0 301Z" fill="#93eef1"></path>
    <path d="M0 272L45.7 256.5C91.3 241 182.7 210 274.2 202C365.7 194 457.3 209 548.8 209.3C640.3 209.7 731.7 195.3 823 196.8C914.3 198.3 1005.7 215.7 1097 235.2C1188.3 254.7 1279.7 276.3 1371.2 277.5C1462.7 278.7 1554.3 259.3 1645.8 242.5C1737.3 225.7 1828.7 211.3 1874.3 204.2L1920 197L1920 301L1874.3 301C1828.7 301 1737.3 301 1645.8 301C1554.3 301 1462.7 301 1371.2 301C1279.7 301 1188.3 301 1097 301C1005.7 301 914.3 301 823 301C731.7 301 640.3 301 548.8 301C457.3 301 365.7 301 274.2 301C182.7 301 91.3 301 45.7 301L0 301Z" fill="#c9ffe8"></path>
</svg>
